<svg aria-hidden="true" style="position: absolute; width: 0; height: 0; overflow: hidden;" version="1.1" xmlns="http://www.w3.org/2000/svg" xmlns:xlink="http://www.w3.org/1999/xlink">
<defs>
<symbol id="icon-rocket" viewBox="0 0 32 32">
<path fill="#7eb101" style="fill: var(--color1, #7eb101)" d="M7.234 13.634l3.534 1.5c0.4-0.8 0.827-1.588 1.283-2.366s0.939-1.522 1.45-2.234l-2.633-0.533-3.634 3.633zM12.368 16.335l4.433 4.434c1.383-0.632 2.553-1.289 3.664-2.027l-0.096 0.060c1.11-0.733 2.010-1.444 2.7-2.133 1.8-1.8 3.122-3.645 3.966-5.535s1.3-4.022 1.367-6.401c-2.378 0.067-4.512 0.523-6.401 1.367s-3.733 2.167-5.534 3.967c-0.69 0.689-1.4 1.589-2.134 2.7-0.678 1.014-1.334 2.184-1.899 3.404l-0.067 0.162zM20.002 13.134c-0.444-0.444-0.667-0.994-0.667-1.65 0-0.655 0.223-1.205 0.667-1.65s0.994-0.666 1.65-0.666 1.206 0.222 1.65 0.666c0.444 0.445 0.667 0.995 0.667 1.65s-0.223 1.206-0.667 1.65c-0.444 0.445-0.994 0.667-1.65 0.667s-1.206-0.222-1.65-0.667zM19.502 25.903l3.633-3.633-0.533-2.634c-0.711 0.512-1.456 0.995-2.233 1.45-0.778 0.456-1.567 0.884-2.367 1.284l1.5 3.533zM30.37 2.767c0.2 3.022-0.178 5.778-1.134 8.267-0.955 2.49-2.533 4.835-4.733 7.035l-0.067 0.066-0.066 0.067 0.733 3.667c0.067 0.333 0.050 0.655-0.050 0.966-0.1 0.312-0.272 0.59-0.517 0.834l-5.701 5.734-2.833-6.601-5.668-5.668-6.601-2.833 5.735-5.701c0.244-0.244 0.522-0.417 0.833-0.517s0.633-0.116 0.967-0.050l3.666 0.734c0.019-0.020 0.041-0.036 0.066-0.049l0.001-0.001c0.026-0.014 0.048-0.030 0.067-0.050l0-0c2.2-2.2 4.545-3.784 7.034-4.75 2.489-0.967 5.245-1.35 8.268-1.15zM5.968 21.169c0.777-0.778 1.727-1.173 2.85-1.184 1.122-0.010 2.072 0.373 2.85 1.15 0.777 0.778 1.16 1.728 1.15 2.85-0.011 1.123-0.406 2.073-1.184 2.85-0.577 0.578-1.472 1.056-2.683 1.434s-3.028 0.733-5.451 1.066c0.333-2.422 0.683-4.244 1.050-5.467s0.839-2.123 1.417-2.7zM7.368 22.602c-0.311 0.333-0.59 0.856-0.834 1.567-0.244 0.71-0.455 1.622-0.633 2.733 1.111-0.178 2.022-0.389 2.733-0.633s1.234-0.523 1.567-0.834c0.422-0.377 0.639-0.85 0.65-1.416 0.001-0.018 0.001-0.040 0.001-0.061 0-0.555-0.223-1.058-0.584-1.423l0 0c-0.366-0.361-0.869-0.584-1.424-0.584-0.021 0-0.043 0-0.064 0.001l0.003-0c-0.565 0.001-1.071 0.252-1.414 0.648l-0.002 0.002z"></path>
</symbol>
<symbol id="icon-touch" viewBox="0 0 32 32">
<path fill="#7eb101" style="fill: var(--color1, #7eb101)" d="M15.502 1.333c2.022 0 3.75 0.706 5.184 2.117 1.434 1.411 2.15 3.128 2.15 5.151 0 1.156-0.25 2.244-0.75 3.267-0.514 1.040-1.229 1.91-2.1 2.588l-0.017 0.012h-1.134v-1.667c0.627-0.495 1.129-1.12 1.471-1.836l0.013-0.031c0.326-0.676 0.516-1.47 0.516-2.309 0-0.009-0-0.017-0-0.026v0.001c0-1.467-0.522-2.711-1.566-3.733-1.045-1.023-2.3-1.534-3.767-1.534s-2.722 0.511-3.767 1.534c-1.043 1.022-1.566 2.266-1.566 3.733 0 0.822 0.172 1.6 0.516 2.333 0.355 0.747 0.857 1.372 1.473 1.859l0.011 0.008v2.4c-1.228-0.632-2.224-1.564-2.916-2.701l-0.018-0.032c-0.67-1.086-1.066-2.402-1.066-3.811 0-0.020 0-0.040 0-0.060l-0 0.003c0-2.022 0.716-3.739 2.15-5.151 1.433-1.411 3.16-2.117 5.184-2.117zM14.235 29.336c-0.377 0-0.733-0.072-1.066-0.216-0.337-0.146-0.624-0.342-0.867-0.584l-6.868-6.867 1.867-1.934c0.311-0.31 0.661-0.55 1.050-0.716 0.214-0.095 0.464-0.151 0.727-0.151 0.174 0 0.343 0.024 0.503 0.070l-0.013-0.003 2.6 0.6v-10.867c0-0.934 0.322-1.723 0.966-2.367s1.434-0.967 2.367-0.967 1.722 0.323 2.367 0.967c0.644 0.644 0.966 1.433 0.966 2.367v5.734h0.867c0.111 0 0.211 0.022 0.3 0.067s0.189 0.088 0.3 0.133l4.934 2.4c0.534 0.244 0.928 0.639 1.184 1.183 0.255 0.545 0.327 1.106 0.216 1.684l-1.2 7.267c-0.106 0.647-0.446 1.2-0.928 1.58l-0.005 0.004c-0.462 0.383-1.061 0.616-1.714 0.616-0.007 0-0.013-0-0.020-0h-8.534zM13.969 27.336h9.367l1.434-8.301-6.101-3.033h-1.834v-7.334c0-0.4-0.122-0.723-0.366-0.967-0.245-0.244-0.567-0.367-0.967-0.367s-0.722 0.123-0.967 0.367c-0.244 0.244-0.366 0.567-0.366 0.967v13.301l-5.135-1.1-0.766 0.766 5.701 5.701zM23.336 27.336v0z"></path>
</symbol>
<symbol id="icon-stars" viewBox="0 0 202 32">
<path fill="#ffe550" style="fill: var(--color1, #ffe550)" d="M15.422 1.047c0.584-1.384 2.576-1.384 3.16 0l3.448 8.163c0.246 0.582 0.804 0.98 1.444 1.032l8.953 0.706c1.516 0.12 2.132 1.982 0.976 2.958l-6.821 5.753c-0.367 0.308-0.598 0.768-0.598 1.281 0 0.138 0.017 0.273 0.048 0.401l-0.002-0.011 2.084 8.601c0.352 1.456-1.258 2.608-2.556 1.828l-7.665-4.61c-0.255-0.155-0.563-0.247-0.892-0.247s-0.637 0.092-0.9 0.251l0.008-0.004-7.665 4.61c-1.3 0.78-2.908-0.372-2.556-1.828l2.084-8.601c0.029-0.117 0.046-0.251 0.046-0.39 0-0.513-0.231-0.972-0.596-1.279l-0.003-0.002-6.821-5.751c-1.156-0.976-0.54-2.84 0.976-2.96l8.953-0.704c0.649-0.050 1.193-0.456 1.44-1.021l0.004-0.011 3.448-8.165zM57.426 1.047c0.584-1.384 2.576-1.384 3.16 0l3.448 8.163c0.246 0.582 0.804 0.98 1.444 1.032l8.953 0.706c1.516 0.12 2.132 1.982 0.976 2.958l-6.821 5.753c-0.367 0.308-0.598 0.768-0.598 1.281 0 0.138 0.017 0.273 0.048 0.401l-0.002-0.011 2.084 8.601c0.352 1.456-1.258 2.608-2.556 1.828l-7.665-4.61c-0.255-0.155-0.563-0.247-0.892-0.247s-0.637 0.092-0.9 0.251l0.008-0.004-7.665 4.61c-1.3 0.78-2.908-0.372-2.556-1.828l2.084-8.601c0.029-0.117 0.046-0.252 0.046-0.39 0-0.513-0.232-0.972-0.596-1.278l-0.003-0.002-6.821-5.751c-1.156-0.976-0.54-2.84 0.976-2.96l8.953-0.704c0.649-0.050 1.193-0.456 1.44-1.021l0.004-0.011 3.448-8.165zM99.43 1.047c0.584-1.384 2.576-1.384 3.16 0l3.448 8.163c0.246 0.582 0.804 0.98 1.444 1.032l8.953 0.706c1.516 0.12 2.132 1.982 0.976 2.958l-6.821 5.753c-0.367 0.308-0.598 0.768-0.598 1.281 0 0.138 0.017 0.273 0.048 0.401l-0.002-0.011 2.084 8.601c0.352 1.456-1.258 2.608-2.556 1.828l-7.665-4.61c-0.255-0.155-0.563-0.247-0.892-0.247s-0.637 0.092-0.9 0.251l0.008-0.004-7.665 4.61c-1.3 0.78-2.908-0.372-2.556-1.828l2.084-8.601c0.030-0.118 0.047-0.253 0.047-0.392 0-0.512-0.231-0.97-0.594-1.276l-0.003-0.002-6.823-5.751c-1.158-0.976-0.542-2.84 0.974-2.96l8.953-0.704c0.649-0.050 1.193-0.456 1.44-1.021l0.004-0.011 3.45-8.165zM141.435 1.047c0.584-1.384 2.576-1.384 3.16 0l3.448 8.163c0.248 0.582 0.804 0.98 1.444 1.032l8.953 0.706c1.516 0.12 2.132 1.982 0.976 2.958l-6.821 5.753c-0.367 0.308-0.598 0.768-0.598 1.281 0 0.138 0.017 0.273 0.048 0.401l-0.002-0.011 2.084 8.601c0.352 1.456-1.258 2.608-2.556 1.828l-7.665-4.61c-0.255-0.155-0.563-0.247-0.892-0.247s-0.637 0.092-0.9 0.251l0.008-0.004-7.665 4.61c-1.3 0.78-2.908-0.372-2.556-1.828l2.084-8.601c0.029-0.117 0.046-0.252 0.046-0.39 0-0.513-0.232-0.972-0.596-1.278l-0.003-0.002-6.821-5.751c-1.156-0.976-0.54-2.84 0.976-2.96l8.953-0.704c0.649-0.050 1.193-0.456 1.44-1.021l0.004-0.011 3.448-8.165zM183.439 1.047c0.584-1.384 2.576-1.384 3.16 0l3.448 8.163c0.248 0.582 0.804 0.98 1.444 1.032l8.953 0.706c1.516 0.12 2.132 1.982 0.976 2.958l-6.821 5.753c-0.367 0.308-0.598 0.768-0.598 1.281 0 0.138 0.017 0.273 0.048 0.401l-0.002-0.011 2.084 8.601c0.352 1.456-1.258 2.608-2.556 1.828l-7.665-4.61c-0.255-0.155-0.563-0.247-0.892-0.247s-0.637 0.092-0.9 0.251l0.008-0.004-7.665 4.61c-1.3 0.78-2.908-0.372-2.556-1.828l2.084-8.601c0.029-0.117 0.046-0.252 0.046-0.39 0-0.513-0.232-0.972-0.596-1.278l-0.003-0.002-6.821-5.751c-1.156-0.976-0.54-2.84 0.976-2.96l8.953-0.704c0.649-0.050 1.193-0.456 1.44-1.021l0.004-0.011 3.448-8.165z"></path>
</symbol>
</defs>
</svg>
